<?xml version="1.0" standalone="no"?>
<!DOCTYPE svg PUBLIC "-//W3C//DTD SVG 20010904//EN"
 "http://www.w3.org/TR/2001/REC-SVG-20010904/DTD/svg10.dtd">
<svg version="1.0" xmlns="http://www.w3.org/2000/svg"
 width="515.000000pt" height="153.000000pt" viewBox="0 0 515.000000 153.000000"
 preserveAspectRatio="xMidYMid meet">

<g transform="translate(0.000000,153.000000) scale(0.100000,-0.100000)"
fill="#000000" stroke="none">
<path d="M529 1043 c-13 -16 -12 -17 4 -4 9 7 17 15 17 17 0 8 -8 3 -21 -13z"/>
<path d="M1630 1012 c0 -11 7 -22 15 -26 12 -4 15 -25 15 -99 0 -72 -4 -98
-15 -107 -8 -7 -15 -21 -15 -32 0 -16 5 -19 23 -14 12 3 46 6 75 6 45 0 52 3
52 20 0 11 -7 20 -15 20 -9 0 -15 9 -15 25 0 22 5 25 33 25 43 0 91 31 106 69
15 35 9 69 -18 102 -17 22 -28 24 -130 27 -106 4 -111 3 -111 -16z m168 -84
c-2 -36 -7 -44 -25 -46 -21 -3 -23 1 -23 42 0 43 2 46 26 46 23 0 25 -3 22
-42z"/>
<path d="M2015 1020 c-103 -42 -108 -235 -7 -277 69 -29 159 -1 189 58 7 13
13 55 13 93 0 64 -2 70 -34 102 -30 30 -40 34 -87 33 -30 0 -63 -4 -74 -9z
m83 -62 c12 -12 17 -124 6 -152 -7 -19 -35 -21 -52 -4 -13 13 -17 149 -5 161
10 11 38 8 51 -5z"/>
<path d="M2270 1011 c0 -10 7 -21 15 -25 12 -4 15 -25 15 -99 0 -72 -4 -98
-15 -107 -8 -7 -15 -20 -15 -29 0 -14 15 -16 113 -15 l112 0 7 60 c7 66 3 76
-30 68 -14 -4 -25 -18 -30 -38 -6 -21 -15 -32 -30 -34 -21 -3 -22 0 -22 87 0
80 2 92 20 101 11 6 20 20 20 30 0 18 -7 20 -80 20 -72 0 -80 -2 -80 -19z"/>
<path d="M2510 1009 c0 -11 9 -28 19 -37 48 -43 104 -192 72 -192 -14 0 -42
-30 -37 -39 3 -4 44 -6 93 -6 81 1 88 3 91 22 2 16 -3 22 -20 25 -15 2 -24 11
-26 25 -4 25 50 137 78 161 11 9 20 27 20 39 0 21 -4 23 -61 23 l-61 0 6 -31
c7 -38 -2 -81 -17 -76 -17 5 -32 60 -18 65 6 2 11 12 11 23 0 17 -8 19 -75 19
-69 0 -75 -2 -75 -21z"/>
<path d="M2840 1012 c0 -10 5 -23 11 -29 7 -7 24 -65 38 -130 l27 -118 39 -1
c74 -1 83 4 90 50 4 22 11 48 15 56 9 16 12 6 25 -74 l6 -39 57 7 c31 4 57 8
59 10 3 3 69 219 80 264 5 21 3 22 -56 22 -50 0 -61 -3 -61 -16 0 -9 7 -22 15
-28 13 -10 13 -20 -4 -89 -10 -43 -21 -80 -24 -83 -6 -6 -27 110 -27 148 0 14
7 28 15 32 8 3 15 12 15 21 0 12 -15 15 -80 15 -73 0 -80 -2 -80 -20 0 -11 5
-20 10 -20 15 0 12 -42 -6 -116 -20 -78 -30 -70 -40 34 -6 63 -4 76 10 84 9 5
16 16 16 23 0 12 -16 15 -75 15 -66 0 -75 -2 -75 -18z"/>
<path d="M3403 1023 c-7 -2 -28 -56 -48 -118 -19 -63 -40 -117 -45 -120 -6 -3
-10 -14 -10 -25 0 -15 10 -19 53 -22 28 -2 58 -2 65 0 17 6 15 29 -5 40 -26
15 -8 42 27 42 35 0 53 -27 27 -42 -10 -5 -17 -17 -17 -26 0 -15 10 -17 72
-15 60 1 74 5 76 19 2 9 -1 20 -7 23 -6 4 -25 62 -43 129 l-31 122 -51 -1
c-28 0 -56 -3 -63 -6z m57 -125 c0 -22 -5 -28 -21 -28 -18 0 -20 4 -14 33 4
17 10 36 12 41 8 13 23 -16 23 -46z"/>
<path d="M3613 1014 c-3 -9 5 -26 20 -42 32 -33 87 -137 87 -163 0 -11 -11
-24 -25 -31 -14 -6 -25 -18 -25 -27 0 -13 14 -16 90 -16 87 0 90 1 90 23 0 15
-6 22 -20 22 -16 0 -20 7 -20 30 0 34 40 120 76 163 39 46 32 57 -35 57 -62 0
-81 -11 -61 -35 9 -11 9 -23 0 -51 -12 -36 -13 -36 -27 -18 -10 13 -12 32 -8
62 l6 42 -71 0 c-55 0 -72 -3 -77 -16z"/>
<path d="M381 726 c-9 -11 -9 -16 1 -22 7 -4 10 -4 6 1 -4 4 -3 14 3 22 6 7 9
13 6 13 -2 0 -10 -6 -16 -14z"/>
<path d="M1181 616 c-9 -11 -9 -16 1 -22 7 -4 10 -4 6 1 -4 4 -3 14 3 22 6 7
9 13 6 13 -2 0 -10 -6 -16 -14z"/>
<path d="M1676 423 l-25 -48 -1 43 c0 23 -5 42 -11 42 -13 0 -8 -102 6 -107 6
-2 22 18 35 44 l24 48 7 -50 6 -50 1 63 c1 35 -2 62 -8 62 -5 0 -21 -21 -34
-47z"/>
<path d="M3486 459 c6 -11 31 -12 37 -1 3 4 -6 8 -19 8 -13 1 -21 -2 -18 -7z"/>
<path d="M1861 425 c-2 -11 -4 -30 -5 -43 -2 -13 1 -25 6 -28 4 -3 8 4 8 15 0
14 6 21 20 21 13 0 20 -7 20 -20 0 -11 5 -20 10 -20 6 0 10 18 10 40 0 22 -4
40 -10 40 -5 0 -10 -7 -10 -15 0 -25 -38 -18 -43 8 -4 20 -5 20 -6 2z"/>
<path d="M1959 419 c-8 -16 -8 -28 0 -45 18 -41 71 -25 71 21 0 44 -50 61 -71
24z m61 -30 c0 -13 -29 -31 -40 -24 -14 9 -13 52 3 58 11 4 37 -19 37 -34z"/>
<path d="M2060 396 c0 -45 1 -46 30 -46 35 0 43 13 32 55 -6 23 -15 31 -35 33
-26 3 -27 1 -27 -42z m45 24 c3 -6 -1 -13 -10 -16 -19 -8 -30 0 -20 15 8 14
22 14 30 1z m5 -46 c0 -9 -7 -14 -17 -12 -25 5 -28 28 -4 28 12 0 21 -6 21
-16z"/>
<path d="M2154 429 c-4 -7 0 -9 14 -5 11 4 23 2 27 -3 3 -6 -6 -13 -20 -17
-19 -5 -25 -12 -23 -28 4 -31 62 -30 66 1 7 46 -43 86 -64 52z m46 -48 c0 -11
-26 -22 -34 -14 -12 12 -5 23 14 23 11 0 20 -4 20 -9z"/>
<path d="M2252 398 l-2 -48 34 0 c19 0 37 -6 40 -12 4 -7 4 -2 1 12 -2 14 -5
40 -5 58 0 20 -4 31 -10 27 -5 -3 -10 -22 -10 -41 0 -27 -4 -34 -19 -34 -16 0
-21 8 -24 43 l-4 42 -1 -47z"/>
<path d="M2391 409 l-19 -31 -10 29 c-10 27 -10 27 -11 -14 -1 -51 8 -54 34
-10 l20 32 6 -35 c6 -33 6 -32 8 13 0 26 -1 47 -4 47 -3 0 -14 -14 -24 -31z"/>
<path d="M2460 426 c-28 -35 11 -93 48 -70 35 22 22 84 -18 84 -10 0 -23 -7
-30 -14z m48 -25 c5 -34 -16 -51 -33 -27 -10 14 -11 24 -4 38 13 24 33 18 37
-11z"/>
<path d="M2657 430 c-7 -19 -4 -67 6 -76 4 -4 7 2 7 14 0 15 6 22 20 22 13 0
20 -7 20 -20 0 -11 5 -20 10 -20 6 0 10 18 10 40 0 22 -4 40 -10 40 -5 0 -10
-7 -10 -15 0 -25 -38 -18 -43 8 -2 16 -5 18 -10 7z"/>
<path d="M2761 397 c-1 -47 0 -48 27 -45 38 4 44 45 8 54 -14 3 -27 13 -29 22
-3 10 -5 -5 -6 -31z m49 -17 c0 -5 -5 -12 -11 -16 -14 -8 -33 11 -25 25 7 11
36 4 36 -9z"/>
<path d="M2843 395 c0 -27 2 -38 4 -22 2 15 2 37 0 50 -2 12 -4 0 -4 -28z"/>
<path d="M2892 431 c-8 -5 -12 -22 -10 -42 2 -29 7 -34 31 -37 16 -2 27 2 27
8 0 7 -6 10 -13 7 -19 -7 -41 8 -32 22 3 7 15 9 25 6 23 -7 35 11 20 30 -14
17 -29 19 -48 6z m33 -11 c3 -6 -4 -10 -17 -10 -18 0 -20 2 -8 10 19 12 18 12
25 0z"/>
<path d="M3066 415 c-8 -30 -22 -32 -31 -5 -3 11 -10 20 -15 20 -5 0 -1 -19 8
-41 15 -39 15 -42 -4 -56 -18 -14 -18 -15 0 -11 20 3 71 104 56 113 -4 3 -11
-6 -14 -20z"/>
<path d="M3112 428 c-27 -27 -7 -78 29 -78 10 0 21 4 24 10 4 6 -4 9 -17 7
-18 -2 -24 3 -26 26 -3 27 3 31 38 28 13 -2 13 -1 0 8 -20 14 -33 14 -48 -1z"/>
<path d="M3193 433 c12 -3 17 -15 17 -44 0 -24 4 -38 10 -34 6 3 10 21 10 40
0 18 6 36 13 38 6 3 -6 5 -28 5 -22 0 -32 -2 -22 -5z"/>
<path d="M3270 379 c0 -38 4 -58 10 -54 6 4 8 11 5 16 -4 5 5 9 20 9 18 0 28
7 35 26 14 36 -3 64 -40 64 -30 0 -30 0 -30 -61z m60 17 c0 -33 -28 -42 -39
-13 -11 27 -5 37 20 37 13 0 19 -7 19 -24z"/>
<path d="M3382 431 c-8 -5 -12 -22 -10 -42 3 -30 6 -34 33 -34 27 0 30 4 33
34 3 32 -9 51 -33 51 -5 0 -16 -4 -23 -9z m48 -36 c0 -26 -22 -39 -39 -22 -22
22 -2 61 25 50 8 -3 14 -15 14 -28z"/>
<path d="M3471 398 c0 -27 3 -48 7 -48 4 0 16 15 27 33 l20 32 6 -35 c6 -32 6
-30 7 15 l1 50 -22 -27 c-13 -16 -26 -28 -29 -28 -4 0 -9 12 -11 28 -2 16 -5
9 -6 -20z"/>
<path d="M3581 426 c-7 -8 -11 -27 -9 -43 2 -22 9 -29 31 -31 16 -2 27 2 27 8
0 7 -6 10 -14 7 -19 -7 -40 18 -32 38 3 8 15 15 26 15 12 0 18 5 15 10 -9 14
-31 12 -44 -4z"/>
<path d="M3663 428 c9 -7 18 -29 20 -48 l4 -35 1 37 c1 23 8 41 20 47 14 8 9
10 -22 11 -34 0 -37 -2 -23 -12z"/>
<path d="M3740 396 c0 -42 2 -46 24 -46 33 0 47 20 37 56 -5 22 -14 30 -34 32
-26 3 -27 1 -27 -42z m44 13 c-7 -11 -34 -12 -34 -1 0 14 11 21 26 15 8 -3 11
-9 8 -14z m4 -31 c-7 -19 -38 -22 -38 -4 0 10 9 16 21 16 12 0 19 -5 17 -12z"/>
<path d="M3835 430 c-4 -6 6 -10 22 -11 l28 -1 -28 -11 c-38 -15 -34 -52 6
-53 32 -1 46 31 27 65 -11 22 -44 28 -55 11z m45 -49 c0 -12 -28 -22 -34 -12
-3 5 -3 11 1 15 9 9 33 7 33 -3z"/>
<path d="M3986 428 c-2 -7 -9 -30 -16 -51 -6 -21 -9 -41 -6 -44 3 -4 6 -1 6 5
0 16 53 15 69 0 11 -11 12 -8 7 16 -4 15 -10 41 -13 57 -6 30 -40 42 -47 17z
m34 -33 c0 -24 -5 -35 -15 -35 -16 0 -18 12 -9 48 10 34 24 26 24 -13z"/>
<path d="M4087 434 c-4 -4 -7 -19 -7 -34 0 -14 -6 -32 -12 -39 -11 -11 -10
-13 2 -9 8 2 19 21 24 41 13 50 26 47 26 -5 0 -30 3 -39 11 -31 6 6 9 26 7 44
-2 25 -8 35 -23 37 -12 2 -24 0 -28 -4z"/>
<path d="M4169 438 c-1 -2 -3 -23 -3 -47 -2 -43 -2 -43 15 -22 22 27 29 27 29
-1 0 -16 3 -19 11 -11 6 6 9 26 7 44 -2 29 -7 34 -30 37 -16 2 -29 2 -29 0z
m41 -23 c0 -8 -7 -15 -15 -15 -16 0 -20 12 -8 23 11 12 23 8 23 -8z"/>
<path d="M4307 433 c-11 -10 -8 -83 3 -83 6 0 10 18 10 41 0 33 3 40 18 37 11
-2 19 -16 23 -43 l6 -40 2 48 c1 45 0 47 -27 47 -16 0 -32 -3 -35 -7z"/>
<path d="M4408 414 c-9 -18 -9 -30 -1 -42 22 -36 73 -21 73 22 0 48 -53 63
-72 20z m55 -8 c7 -19 -17 -51 -31 -42 -20 12 -15 56 7 56 10 0 21 -6 24 -14z"/>
<path d="M4515 413 c-4 -15 -11 -36 -16 -47 -8 -14 -7 -17 3 -14 7 2 17 19 23
36 12 42 25 41 25 -3 0 -19 5 -35 11 -35 6 0 9 17 7 43 -2 35 -7 43 -25 45
-17 3 -24 -3 -28 -25z"/>
<path d="M4602 395 l-1 -50 22 28 c13 15 26 27 29 27 4 0 9 -12 11 -27 2 -16
4 -6 5 22 l1 50 -29 -34 -29 -34 -4 34 c-3 26 -4 22 -5 -16z"/>
<path d="M4707 434 c-4 -4 -7 -25 -7 -46 0 -38 1 -39 33 -36 30 3 32 5 32 43
0 35 -3 40 -25 43 -14 2 -29 0 -33 -4z m43 -19 c0 -8 -6 -15 -14 -15 -17 0
-28 14 -19 24 12 12 33 6 33 -9z m0 -40 c0 -8 -6 -15 -14 -15 -17 0 -28 14
-19 24 12 12 33 6 33 -9z"/>
<path d="M4804 428 c-5 -8 -2 -9 9 -5 27 10 28 -9 1 -22 -36 -16 -28 -46 14
-48 31 -1 32 0 32 37 0 25 -5 40 -16 44 -23 9 -32 7 -40 -6z m34 -54 c-9 -9
-21 -13 -27 -9 -16 10 -3 25 22 25 20 0 20 -1 5 -16z"/>
<path d="M1750 396 c0 -19 5 -38 10 -41 6 -3 10 3 10 14 0 14 6 21 20 21 13 0
20 -7 20 -20 0 -11 5 -20 10 -20 6 0 10 18 10 40 0 22 -4 40 -10 40 -5 0 -10
-7 -10 -15 0 -8 -9 -15 -20 -15 -11 0 -20 7 -20 15 0 8 -4 15 -10 15 -5 0 -10
-15 -10 -34z"/>
<path d="M2550 390 c0 -22 5 -40 10 -40 6 0 10 9 10 20 0 13 7 20 20 20 14 0
20 -7 20 -22 0 -33 12 -13 16 27 2 19 -1 35 -6 35 -6 0 -10 -7 -10 -15 0 -8
-9 -15 -20 -15 -11 0 -20 7 -20 15 0 8 -4 15 -10 15 -5 0 -10 -18 -10 -40z"/>
</g>
</svg>
