<?xml version="1.0" standalone="no"?>
<svg version="1.0" xmlns="http://www.w3.org/2000/svg"
 width="515.000000pt" height="153.000000pt" viewBox="0 0 515.000000 153.000000"
 preserveAspectRatio="xMidYMid meet">
<metadata>
Created by potrace 1.16, written by Peter Selinger 2001-2019
</metadata>
<g transform="translate(0.000000,153.000000) scale(0.100000,-0.100000)"
fill="#000000" stroke="none">
<path d="M1630 1012 c0 -11 7 -22 15 -26 12 -4 15 -25 15 -99 0 -72 -4 -98
-15 -107 -8 -7 -15 -21 -15 -32 0 -16 5 -19 23 -14 12 3 46 6 75 6 45 0 52 3
52 20 0 11 -7 20 -15 20 -9 0 -15 9 -15 25 0 22 5 25 33 25 43 0 91 31 106 69
15 35 9 69 -18 102 -17 22 -28 24 -130 27 -106 4 -111 3 -111 -16z"/>
<path d="M2015 1020 c-103 -42 -108 -235 -7 -277 69 -29 159 -1 189 58 7 13
13 55 13 93 0 64 -2 70 -34 102 -30 30 -40 34 -87 33 -30 0 -63 -4 -74 -9z"/>
<path d="M2270 1011 c0 -10 7 -21 15 -25 12 -4 15 -25 15 -99 0 -72 -4 -98
-15 -107 -8 -7 -15 -20 -15 -29 0 -14 15 -16 113 -15 l112 0 7 60 c7 66 3 76
-30 68 -14 -4 -25 -18 -30 -38 -6 -21 -15 -32 -30 -34 -21 -3 -22 0 -22 87 0
80 2 92 20 101 11 6 20 20 20 30 0 18 -7 20 -80 20 -72 0 -80 -2 -80 -19z"/>
<path d="M2510 1009 c0 -11 9 -28 19 -37 48 -43 104 -192 72 -192 -14 0 -42
-30 -37 -39 3 -4 44 -6 93 -6 81 1 88 3 91 22 2 16 -3 22 -20 25 -15 2 -24 11
-26 25 -4 25 50 137 78 161 11 9 20 27 20 39 0 21 -4 23 -61 23 l-61 0 6 -31
c7 -38 -2 -81 -17 -76 -17 5 -32 60 -18 65 6 2 11 12 11 23 0 17 -8 19 -75 19
-69 0 -75 -2 -75 -21z"/>
<path d="M2840 1012 c0 -10 5 -23 11 -29 7 -7 24 -65 38 -130 l27 -118 39 -1
c74 -1 83 4 90 50 4 22 11 48 15 56 9 16 12 6 25 -74 l6 -39 57 7 c31 4 57 8
59 10 3 3 69 219 80 264 5 21 3 22 -56 22 -50 0 -61 -3 -61 -16 0 -9 7 -22 15
-28 13 -10 13 -20 -4 -89 -10 -43 -21 -80 -24 -83 -6 -6 -27 110 -27 148 0 14
7 28 15 32 8 3 15 12 15 21 0 12 -15 15 -80 15 -73 0 -80 -2 -80 -20 0 -11 5
-20 10 -20 15 0 12 -42 -6 -116 -20 -78 -30 -70 -40 34 -6 63 -4 76 10 84 9 5
16 16 16 23 0 12 -16 15 -75 15 -66 0 -75 -2 -75 -18z"/>
<path d="M3403 1023 c-7 -2 -28 -56 -48 -118 -19 -63 -40 -117 -45 -120 -6 -3
-10 -14 -10 -25 0 -15 10 -19 53 -22 28 -2 58 -2 65 0 17 6 15 29 -5 40 -26
15 -8 42 27 42 35 0 53 -27 27 -42 -10 -5 -17 -17 -17 -26 0 -15 10 -17 72
-15 60 1 74 5 76 19 2 9 -1 20 -7 23 -6 4 -25 62 -43 129 l-31 122 -51 -1
c-28 0 -56 -3 -63 -6z"/>
<path d="M3613 1014 c-3 -9 5 -26 20 -42 32 -33 87 -137 87 -163 0 -11 -11
-24 -25 -31 -14 -6 -25 -18 -25 -27 0 -13 14 -16 90 -16 87 0 90 1 90 23 0 15
-6 22 -20 22 -16 0 -20 7 -20 30 0 34 40 120 76 163 39 46 32 57 -35 57 -62 0
-81 -11 -61 -35 9 -11 9 -23 0 -51 -12 -36 -13 -36 -27 -18 -10 13 -12 32 -8
62 l6 42 -71 0 c-55 0 -72 -3 -77 -16z"/>
</g>
</svg>
